<?xml version="1.0" encoding="UTF-8" standalone="no"?>
<!-- Created with Inkscape (http://www.inkscape.org/) -->

<svg
   width="100mm"
   height="26.832989mm"
   viewBox="0 0 100 26.832989"
   version="1.1"
   id="svg1"
   xml:space="preserve"
   inkscape:version="1.4 (86a8ad7, 2024-10-11)"
   sodipodi:docname="Gravediggaz_v3.svg"
   inkscape:export-filename="Gravediggaz.svg"
   inkscape:export-xdpi="96"
   inkscape:export-ydpi="96"
   xmlns:inkscape="http://www.inkscape.org/namespaces/inkscape"
   xmlns:sodipodi="http://sodipodi.sourceforge.net/DTD/sodipodi-0.dtd"
   xmlns="http://www.w3.org/2000/svg"
   xmlns:svg="http://www.w3.org/2000/svg"><sodipodi:namedview
     id="namedview1"
     pagecolor="#ffffff"
     bordercolor="#000000"
     borderopacity="0.25"
     inkscape:showpageshadow="2"
     inkscape:pageopacity="0.0"
     inkscape:pagecheckerboard="0"
     inkscape:deskcolor="#d1d1d1"
     inkscape:document-units="mm"
     inkscape:zoom="1.9729351"
     inkscape:cx="96.049788"
     inkscape:cy="69.693118"
     inkscape:window-width="1920"
     inkscape:window-height="1001"
     inkscape:window-x="-9"
     inkscape:window-y="-9"
     inkscape:window-maximized="1"
     inkscape:current-layer="layer1"><inkscape:page
       x="0"
       y="0"
       width="100"
       height="26.832989"
       id="page2"
       margin="0"
       bleed="0" /></sodipodi:namedview><defs
     id="defs1" /><g
     inkscape:label="Layer 1"
     inkscape:groupmode="layer"
     id="layer1"
     transform="translate(-24.033528,-147.915)"><path
       style="color:#000000;font-style:normal;font-variant:normal;font-weight:normal;font-stretch:normal;font-size:medium;line-height:normal;font-family:sans-serif;font-variant-ligatures:normal;font-variant-position:normal;font-variant-caps:normal;font-variant-numeric:normal;font-variant-alternates:normal;font-variant-east-asian:normal;font-feature-settings:normal;font-variation-settings:normal;text-indent:0;text-align:start;text-decoration-line:none;text-decoration-style:solid;text-decoration-color:#000000;letter-spacing:normal;word-spacing:normal;text-transform:none;writing-mode:lr-tb;direction:ltr;text-orientation:mixed;dominant-baseline:auto;baseline-shift:baseline;text-anchor:start;white-space:normal;shape-padding:0;shape-margin:0;inline-size:0;clip-rule:nonzero;display:inline;overflow:visible;visibility:visible;isolation:auto;mix-blend-mode:normal;color-interpolation:sRGB;color-interpolation-filters:linearRGB;solid-color:#000000;solid-opacity:1;fill:none;fill-opacity:1;fill-rule:nonzero;stroke:#000000;stroke-linecap:butt;stroke-linejoin:miter;stroke-miterlimit:4;stroke-dasharray:none;stroke-dashoffset:0;stroke-opacity:1;color-rendering:auto;image-rendering:auto;shape-rendering:auto;text-rendering:auto;enable-background:accumulate;stop-color:#000000;stop-opacity:1;stroke-width:0.02"
       d="m 24.412838,161.33148 v -13.4165 h 50.000001 50.000001 v 13.4165 13.4165 H 74.412839 24.412838 Z m 18.292769,9.87488 c 0.42976,-0.45931 1.182635,-3.12245 1.872872,-6.62492 0.498316,-2.5286 0.698118,-2.99996 1.271649,-2.99996 0.113803,0 0.258996,-0.1641 0.322651,-0.36465 0.08495,-0.26766 0.01583,-0.44556 -0.259844,-0.66878 -0.576266,-0.46662 -1.105924,-0.5334 -1.761864,-0.22214 -0.435159,0.20648 -0.910737,0.26497 -1.790396,0.22016 -0.658811,-0.0336 -1.308557,-0.0955 -1.44388,-0.1378 -0.356813,-0.11135 -0.419645,0.60603 -0.0963,1.09951 0.237355,0.36225 0.385459,0.40703 1.346188,0.40703 0.59372,0 1.079491,0.0437 1.079491,0.0971 0,0.0534 -0.58125,0.73573 -1.291667,1.51624 -2.983589,3.27795 -4.465788,3.55324 -4.452554,0.82695 0.0095,-1.94958 1.180956,-4.8246 3.010721,-7.38876 0.888373,-1.24492 2.29165,-2.42426 2.797895,-2.3514 0.302112,0.0435 0.340049,0.14675 0.293875,0.79992 -0.02916,0.41249 -0.167456,0.99312 -0.307326,1.2903 -0.13987,0.29716 -0.21362,0.64634 -0.163888,0.77594 0.100458,0.26178 1.010911,0.51646 1.271214,0.35559 0.265755,-0.16425 0.653404,-1.66955 0.774728,-3.00838 0.110934,-1.2242 0.10837,-1.23506 -0.339625,-1.43918 -0.354377,-0.16146 -0.520962,-0.16223 -0.775011,-0.004 -0.269321,0.16818 -0.404797,0.14207 -0.80758,-0.15572 -0.625208,-0.46224 -1.068627,-0.34946 -2.061131,0.52415 -2.4745,2.17812 -4.922381,6.93249 -5.220429,10.13934 -0.128266,1.38008 0.129832,2.02873 1.199572,3.01477 0.584773,0.53902 0.855798,0.67315 1.359149,0.67265 1.077374,-0.001 2.857771,-1.32607 4.154091,-3.09155 0.431874,-0.58817 0.807009,-1.04762 0.833634,-1.02099 0.0859,0.0859 -0.900218,3.66818 -1.259911,4.57689 -0.603977,1.52585 -0.805366,1.7396 -1.524552,1.61809 -1.216091,-0.20545 -0.987122,0.62696 0.389642,1.41654 1.044516,0.59903 1.130117,0.6059 1.578589,0.1266 z m 46.219843,-3.05605 c 0.22223,-0.23708 0.872856,-0.76591 1.445839,-1.17515 0.572983,-0.40925 1.158595,-0.96997 1.301361,-1.24605 0.246148,-0.47599 0.237511,-0.53961 -0.166785,-1.22949 -0.39387,-0.67208 -0.426362,-0.88139 -0.426362,-2.74646 0,-1.78856 0.03805,-2.05976 0.333336,-2.37672 0.183332,-0.19678 0.333329,-0.49628 0.333329,-0.66555 0,-0.25264 -0.05776,-0.27686 -0.322375,-0.13524 -0.47818,0.25591 -0.611194,0.22067 -1.235332,-0.32732 l -0.569304,-0.49985 -0.978161,0.45179 c -0.647477,0.29905 -1.34439,0.47352 -2.061493,0.51607 l -1.083332,0.0643 0.05342,2.56753 c 0.0497,2.38884 0.02942,2.59807 -0.291666,3.00622 -0.482469,0.61335 -0.436844,0.70765 0.294879,0.6095 0.547754,-0.0734 0.72817,-0.009 1.252201,0.45173 l 0.612252,0.53755 0.74407,-0.68586 c 0.409247,-0.37722 0.802003,-0.68585 0.8728,-0.68585 0.198589,1e-5 1.045392,1.11941 1.045392,1.38191 0,0.12819 -0.139509,0.35933 -0.310022,0.51364 -0.246526,0.22309 -0.402369,0.24546 -0.760851,0.10915 -1.086129,-0.41293 -2.698841,0.0214 -3.402891,0.91644 -0.435679,0.55385 -0.38931,0.64523 0.211502,0.41681 0.720914,-0.27408 1.338161,-0.2008 1.945947,0.23106 0.718079,0.51023 0.683886,0.51023 1.162261,-1.4e-4 z m -1.054281,-4.28543 -0.45833,-0.18111 v -2.1286 c 0,-1.9389 0.02891,-2.14408 0.324579,-2.30231 0.261884,-0.14016 0.405285,-0.0931 0.742419,0.24413 0.229821,0.22981 0.496258,0.41784 0.592088,0.41784 0.110936,0 0.174243,0.68429 0.174243,1.88331 0,2.3179 -0.153909,2.54924 -1.374999,2.06674 z m 8.226463,4.44467 c 0.124088,-0.14952 0.813084,-0.71905 1.531106,-1.26562 1.670614,-1.27171 1.799899,-1.53852 1.222746,-2.52336 -0.410261,-0.70004 -0.438646,-0.88292 -0.438646,-2.82594 0,-1.60853 0.05172,-2.09731 0.229071,-2.16537 0.125991,-0.0484 0.312215,-0.3264 0.413833,-0.6179 0.165689,-0.47529 0.154948,-0.51772 -0.104069,-0.41101 -0.680264,0.28022 -0.857707,0.25033 -1.414148,-0.23821 l -0.585033,-0.51366 -0.978161,0.45179 c -0.647496,0.29906 -1.344377,0.47351 -2.061492,0.51606 l -1.083333,0.0643 0.04989,2.57204 c 0.04617,2.38229 0.02469,2.60407 -0.291666,3.00622 -0.452126,0.57478 -0.430879,0.75133 0.07513,0.62434 0.583641,-0.14648 1.116434,0.0195 1.650236,0.51424 l 0.457581,0.42408 0.761228,-0.67005 c 0.418671,-0.36852 0.84441,-0.66686 0.946085,-0.66299 0.101682,0.004 0.358577,0.27904 0.570879,0.61146 0.62383,0.9768 0.219169,1.73829 -0.731641,1.37679 -1.06177,-0.40368 -2.681512,0.0402 -3.378135,0.92584 -0.435673,0.55385 -0.389304,0.64523 0.211502,0.41681 0.720913,-0.27408 1.338167,-0.2008 1.945953,0.23106 0.693423,0.4927 0.720642,0.49704 1.001108,0.1591 z m -0.809795,-4.45268 -0.541669,-0.17768 v -2.13755 c 0,-2.0643 0.01285,-2.14233 0.375004,-2.27693 0.29137,-0.10831 0.456851,-0.0513 0.742041,0.25536 0.201871,0.21712 0.445619,0.39476 0.541663,0.39476 0.256517,0 0.232794,3.70846 -0.02539,3.96661 -0.226551,0.22656 -0.33353,0.22414 -1.091666,-0.0246 z m -32.573169,2.29451 c 0.497394,-0.34837 2.462214,-0.90332 3.197639,-0.90314 l 0.583864,1.5e-4 -0.05656,-2.5799 c -0.05286,-2.41103 -0.03376,-2.60887 0.291667,-3.02258 0.441749,-0.56159 0.439189,-0.73106 -0.01104,-0.73106 -0.197598,0 -0.611815,-0.19263 -0.920483,-0.42807 l -0.561216,-0.42805 -0.829516,0.60892 c -0.456234,0.3349 -0.829517,0.66082 -0.829517,0.72427 0,0.0634 0.225,0.31278 0.5,0.55409 l 0.5,0.43874 v 1.91804 c 0,1.05494 -0.04552,2.03669 -0.101164,2.18169 -0.135988,0.35437 -1.122674,0.34638 -1.419692,-0.0115 -0.168313,-0.20281 -0.236867,-0.95647 -0.260781,-2.86693 -0.03691,-2.94905 -0.08937,-3.27711 -0.564688,-3.53148 -0.29115,-0.15582 -0.479853,-0.0772 -1.260955,0.52542 l -0.918565,0.70866 0.429589,0.22507 0.429589,0.22509 v 2.48379 c 0,2.69781 0.09386,3.14412 0.790054,3.75682 0.551123,0.48504 0.538879,0.48319 1.011777,0.15197 z m -12.241466,-1.04663 0.797833,-0.81001 -0.538214,-0.10764 c -0.919545,-0.1839 -0.98665,-0.32711 -0.98665,-2.10564 0,-1.81452 0.171327,-2.1876 0.840229,-1.82961 0.855113,0.45763 1.993105,-0.22285 1.993105,-1.19183 0,-0.36765 -0.06033,-0.43152 -0.338814,-0.3587 -0.386795,0.10111 -0.99452,-0.36698 -0.99452,-0.76607 0,-0.15095 -0.306538,0.087 -0.726064,0.56384 l -0.726063,0.8251 -0.256873,-0.49673 c -0.14128,-0.2732 -0.420701,-0.64499 -0.620935,-0.8262 -0.362648,-0.32818 -0.364755,-0.32818 -0.542929,3.9e-4 -0.09838,0.18143 -0.456005,0.59744 -0.794729,0.92447 l -0.615863,0.59458 0.475062,0.27265 0.475061,0.27264 v 1.91612 c 0,1.42607 -0.05723,1.9502 -0.223765,2.04938 -0.305909,0.18222 -0.849142,1.04607 -0.670404,1.06609 0.07929,0.009 0.407714,0.004 0.729825,-0.01 0.387064,-0.0172 0.782672,0.11375 1.166667,0.38623 0.319556,0.22676 0.621329,0.41873 0.670609,0.42657 0.04928,0.008 0.448623,-0.35022 0.887432,-0.79574 z m 5.740408,0.32516 0.550773,-0.47128 0.478074,0.47806 c 0.692451,0.69243 1.196938,0.62937 1.827846,-0.22852 0.356006,-0.48409 0.45239,-0.72711 0.306085,-0.77174 -0.700502,-0.21372 -0.796884,-0.5187 -0.796884,-2.52162 0,-1.70259 0.03995,-1.98447 0.316718,-2.23493 0.174195,-0.15765 0.354673,-0.43178 0.401063,-0.60917 0.06842,-0.26164 -0.0028,-0.32253 -0.377574,-0.32253 -0.254057,0 -0.664814,-0.15959 -0.912795,-0.35466 l -0.450874,-0.35464 -0.53787,0.52131 c -0.689194,0.66798 -0.969805,0.65629 -1.564506,-0.0652 l -0.48344,-0.58648 -0.320361,0.35422 c -0.176199,0.19482 -0.608619,0.50134 -0.960936,0.68115 -0.718489,0.36669 -0.742338,0.28303 0.452896,1.58881 l 0.4893,0.53455 -0.616581,0.68248 c -0.33912,0.37536 -0.688235,0.87094 -0.77581,1.10127 -0.414419,1.08999 0.02802,2.28629 1.027686,2.77875 0.799597,0.39391 1.315133,0.34099 1.94719,-0.19986 z m -0.739599,-1.31051 c -0.688419,-0.55763 -0.908141,-1.38963 -0.545791,-2.06667 0.176522,-0.32983 0.199304,-0.32343 0.750324,0.21063 0.423772,0.41073 0.616358,0.50271 0.757363,0.3617 0.141005,-0.14101 -0.04944,-0.45665 -0.748927,-1.24133 l -0.938015,-1.05224 0.497576,-0.10379 c 0.273666,-0.0571 0.610538,-0.19749 0.748603,-0.31207 0.200319,-0.16625 0.301528,-0.16642 0.501027,-5.4e-4 0.198539,0.16478 0.25,0.64928 0.25,2.35371 v 2.14624 l -0.458333,-0.004 c -0.252083,-0.002 -0.618306,-0.13329 -0.813827,-0.29166 z m 16.600036,0.94933 c 0.51139,-0.60647 0.662351,-0.89706 0.533154,-1.02626 -0.129203,-0.12919 -0.242274,-0.12874 -0.399346,0.002 -0.160737,0.1334 -0.462293,0.10282 -1.13206,-0.11485 -0.885398,-0.28771 -0.914454,-0.31653 -0.962534,-0.95464 -0.04944,-0.65613 -0.0462,-0.65992 1.166667,-1.35928 0.668935,-0.38572 1.318209,-0.76688 1.442832,-0.84703 0.180876,-0.1163 0.08382,-0.43382 -0.481078,-1.57382 l -0.707669,-1.42811 -0.989532,0.49951 c -0.54506,0.27515 -1.302183,0.51436 -1.685588,0.53257 l -0.696056,0.0331 0.05588,2.60103 0.05588,2.60105 -0.447707,0.48225 -0.447706,0.48226 1.147356,0.11696 c 0.631046,0.0643 1.482367,0.26894 1.891826,0.45467 0.409457,0.18573 0.788978,0.33935 0.843379,0.34135 0.0544,0.002 0.419936,-0.37704 0.812295,-0.84236 z m -1.994543,-4.73724 c 0,-0.59582 0.03458,-1.08331 0.07686,-1.08331 0.04227,0 0.257547,0.37755 0.478393,0.83899 l 0.401539,0.83901 -0.348812,0.24432 c -0.191846,0.13437 -0.407123,0.24431 -0.478393,0.24431 -0.07127,0 -0.129583,-0.4875 -0.129583,-1.08332 z m 6.675785,5.32228 c 0.533392,-0.64269 2.003654,-0.97078 2.970085,-0.66278 0.240095,0.0765 0.357235,0.0636 0.297682,-0.0327 -0.139231,-0.22528 -0.158595,-5.56625 -0.02148,-5.91843 0.07662,-0.19676 0.03408,-0.29166 -0.130703,-0.29166 -0.134349,0 -1.161492,-0.94251 -2.282532,-2.09449 -2.011049,-2.06651 -2.045077,-2.0921 -2.548434,-1.91664 -0.280586,0.0978 -0.780221,0.17988 -1.110293,0.18237 l -0.600126,0.004 1.624995,1.51154 c 0.893751,0.83135 1.625002,1.61099 1.625002,1.73253 0,0.24398 -0.705619,0.51202 -1.788637,0.67944 -0.387918,0.06 -0.667363,0.17041 -0.620995,0.24544 0.04636,0.075 0.09814,1.1425 0.11503,2.37216 0.03036,2.20769 0.02507,2.24247 -0.420674,2.77218 -0.248265,0.29504 -0.451389,0.59312 -0.451389,0.66237 0,0.0692 0.401902,0.0926 0.893121,0.0518 0.814684,-0.0675 0.942766,-0.0289 1.458337,0.43974 0.657077,0.5973 0.703074,0.60948 0.990992,0.26257 z m 0.572378,-1.52021 c -0.182324,-0.1384 -0.537745,-0.32659 -0.789833,-0.41818 l -0.458331,-0.16654 v -2.11946 -2.11948 l 0.619874,-0.29559 c 0.610514,-0.29113 0.624353,-0.29005 0.916668,0.071 0.253751,0.31337 0.296794,0.71286 0.296794,2.75486 0,1.31359 -0.05707,2.42362 -0.126841,2.46673 -0.06976,0.043 -0.276013,-0.0349 -0.458331,-0.17326 z m 6.144258,1.10329 c 0.983742,-0.70443 1.092819,-1.0852 0.258381,-0.90192 l -0.484138,0.10637 v -2.37747 c 0,-2.14194 0.03276,-2.41235 0.330765,-2.72955 l 0.330766,-0.35208 -0.832133,-0.62124 -0.832126,-0.62123 -0.742135,0.54591 c -0.793128,0.58343 -0.895408,0.80535 -0.516208,1.12005 0.185581,0.15402 0.250709,0.81315 0.291673,2.95185 l 0.05272,2.75356 0.467622,0.40185 c 0.257197,0.22101 0.526236,0.40185 0.597871,0.40185 0.07163,0 0.556252,-0.30506 1.076926,-0.67791 z m 19.325855,0.1834 0.56321,-0.4945 0.47377,0.4945 c 0.67806,0.70773 1.21093,0.65292 1.80431,-0.18559 0.26194,-0.37013 0.44943,-0.69586 0.41667,-0.72385 -0.0327,-0.028 -0.22832,-0.13868 -0.43457,-0.24599 -0.3584,-0.18647 -0.375,-0.28708 -0.375,-2.27255 0,-1.85522 0.0357,-2.11309 0.33333,-2.41077 0.18333,-0.18333 0.33334,-0.47034 0.33334,-0.63779 0,-0.24234 -0.10032,-0.28974 -0.49157,-0.23232 -0.37006,0.0543 -0.58855,-0.0325 -0.88384,-0.35111 l -0.39227,-0.42325 -0.4566,0.57224 c -0.57611,0.722 -1.05909,0.7374 -1.62273,0.0517 l -0.43035,-0.5235 -0.88002,0.60535 c -0.48401,0.33293 -0.952826,0.60534 -1.041796,0.60534 -0.08898,0 0.213127,0.42739 0.671336,0.94977 l 0.83312,0.94977 -0.64388,0.62485 c -1.376205,1.33555 -1.192444,3.05483 0.42193,3.94769 0.5849,0.3235 1.21004,0.2194 1.80161,-0.3 z m -0.88654,-1.48143 c -0.40275,-0.40274 -0.4984,-0.63946 -0.4984,-1.23343 0,-0.40426 0.0513,-0.78635 0.11404,-0.84907 0.0627,-0.0628 0.36286,0.12713 0.66699,0.42189 0.42254,0.40954 0.59899,0.4899 0.74816,0.34072 0.14918,-0.14917 -0.008,-0.429 -0.66699,-1.1865 -0.93728,-1.07761 -0.99168,-1.18427 -0.60393,-1.18427 0.14205,0 0.47045,-0.10972 0.72977,-0.24381 0.4279,-0.22127 0.49697,-0.21565 0.7472,0.0609 0.23022,0.25439 0.26794,0.63155 0.22857,2.28545 l -0.0471,1.98079 -0.45993,0.0529 c -0.33256,0.0382 -0.59797,-0.0851 -0.95834,-0.44551 z m 5.98613,1.29455 c 0.55046,-0.74453 1.29147,-1.02347 1.8928,-0.71251 0.29223,0.15111 0.50335,0.42235 0.56373,0.72425 l 0.0965,0.48265 0.77286,-0.30244 c 0.66,-0.25828 0.7804,-0.37714 0.82441,-0.81395 0.10928,-1.08465 -0.97625,-1.8622 -2.13562,-1.5297 -0.31921,0.0915 -0.60387,0.16646 -0.63258,0.16646 -0.0287,0 0.0826,-0.22815 0.2473,-0.50699 0.28848,-0.48835 0.33107,-0.50304 1.15909,-0.39958 0.85635,0.10701 0.86005,0.1054 0.97276,-0.40777 0.0622,-0.28333 0.18239,-0.55795 0.267,-0.61023 0.3832,-0.23683 0.10235,-0.40445 -0.51282,-0.30608 -0.36667,0.0586 -0.66667,0.0567 -0.66667,-0.004 0,-0.0611 0.4528,-0.78443 1.00621,-1.60746 0.77905,-1.15861 0.95021,-1.51792 0.75816,-1.59163 -0.13644,-0.0524 -0.49548,0.0903 -0.79789,0.31684 -1.05576,0.79116 -1.92175,0.77246 -2.87217,-0.0619 l -0.5476,-0.4808 -0.69989,0.83003 c -0.38495,0.45652 -0.6532,0.90558 -0.59612,0.99793 0.37434,0.60569 2.45521,0.92385 3.25229,0.49727 0.52672,-0.28188 0.54047,-0.13974 0.0556,0.57392 l -0.43266,0.63669 -1.0301,-0.0827 -1.0301,-0.0826 -0.16718,0.72054 -0.16717,0.72054 0.71768,-0.0983 c 0.92337,-0.12657 0.92053,0.0269 -0.0255,1.3803 -0.94588,1.35307 -1.12962,1.70118 -1.00466,1.90337 0.16644,0.26929 0.33226,0.18972 0.7324,-0.35149 z m -24.890062,-8.51731 0.606073,-0.53213 -0.558608,-0.46337 c -0.307232,-0.25485 -0.6711,-0.46319 -0.808605,-0.46297 -0.343282,5.4e-4 -1.405411,0.99003 -1.227175,1.14324 0.455748,0.39176 1.124529,0.84737 1.243855,0.84737 0.07611,0 0.411125,-0.23946 0.74446,-0.53214 z"
       id="path6"
       sodipodi:nodetypes="ccccccccccsssssssssssssssssssscsssscsssssccssssssssscsscscsscssssssssssscsssssscssssssscssccssscscsssssccccssssssccscsssscssscsssssscccssccccssssssscsssscccssssscscscsssssssscsscssscsssscssssccscscccccscssssscsscccccsscccssscssscssssssccsssscsscsccsscccssssssscsscccssscssssccssssssssscsscssscssscssssssssscccsscsscsssssssssssssscsssscccccsssccscsssss"
       inkscape:export-filename="Gravediggaz_v2.svg"
       inkscape:export-xdpi="96"
       inkscape:export-ydpi="96" /></g></svg>
